<?xml version="1.0" standalone="no"?>
<!DOCTYPE svg PUBLIC "-//W3C//DTD SVG 20010904//EN"
 "http://www.w3.org/TR/2001/REC-SVG-20010904/DTD/svg10.dtd">
<svg version="1.0" xmlns="http://www.w3.org/2000/svg"
 width="1048.000000pt" height="1048.000000pt" viewBox="0 0 1048.000000 1048.000000"
 preserveAspectRatio="xMidYMid meet">
<metadata>
Created by potrace 1.11, written by Peter Selinger 2001-2013
</metadata>
<g transform="translate(0.000000,1048.000000) scale(0.100000,-0.100000)"
fill="#000000" stroke="none">
<path d="M18 9748 c10 -18 28 -49 38 -68 10 -19 22 -37 25 -40 4 -3 15 -22 25
-42 33 -65 136 -242 152 -260 8 -10 11 -18 7 -18 -4 0 -1 -8 7 -17 13 -16 237
-400 309 -531 14 -26 36 -63 47 -82 12 -19 27 -46 34 -60 7 -14 15 -27 18 -30
4 -3 24 -36 45 -75 22 -38 47 -83 57 -100 10 -16 30 -52 44 -80 15 -27 30 -52
34 -55 3 -3 13 -20 21 -37 8 -18 17 -33 21 -33 5 0 8 -4 8 -10 0 -5 13 -31 29
-58 16 -27 44 -76 62 -108 17 -32 38 -65 46 -72 7 -7 13 -19 13 -25 0 -7 11
-28 24 -48 13 -20 38 -60 54 -90 16 -30 39 -70 51 -89 11 -19 26 -46 32 -60 5
-13 14 -27 18 -30 4 -3 21 -30 36 -60 16 -30 34 -62 41 -70 6 -8 27 -44 45
-80 19 -36 37 -67 40 -70 10 -9 89 -152 89 -161 0 -5 3 -9 8 -9 4 0 13 -15 21
-32 8 -18 17 -35 20 -38 6 -5 13 -16 59 -99 14 -25 36 -63 49 -83 12 -21 23
-42 23 -48 0 -5 5 -10 11 -10 5 0 7 -4 4 -10 -3 -5 -1 -10 4 -10 6 0 11 -4 11
-9 0 -5 45 -87 101 -182 56 -96 111 -192 124 -214 58 -103 218 -381 225 -390
4 -5 19 -30 32 -55 35 -62 60 -107 92 -160 15 -25 29 -53 33 -62 3 -10 9 -18
14 -18 5 0 9 -4 9 -9 0 -5 23 -49 51 -98 29 -48 63 -108 77 -133 13 -25 28
-49 32 -55 4 -5 19 -30 32 -55 71 -127 223 -388 240 -412 11 -16 16 -28 11
-28 -4 0 -3 -4 2 -8 6 -4 16 -18 23 -31 8 -13 22 -39 32 -57 11 -18 30 -50 43
-71 13 -21 26 -45 30 -53 4 -8 18 -33 32 -55 14 -22 28 -46 32 -54 3 -8 35
-63 70 -123 35 -60 63 -112 63 -115 0 -4 6 -14 14 -22 8 -9 26 -38 41 -66 14
-27 37 -68 50 -90 14 -22 45 -76 70 -120 25 -44 54 -93 64 -110 10 -16 29 -51
43 -76 46 -83 53 -94 58 -99 3 -3 11 -16 18 -30 7 -14 23 -44 37 -67 14 -24
36 -62 50 -85 14 -24 30 -54 37 -68 7 -14 15 -27 18 -30 3 -3 11 -16 18 -29
36 -63 51 -89 76 -131 15 -25 29 -53 33 -62 3 -10 9 -18 14 -18 5 0 9 -4 9 -9
0 -9 51 -102 91 -166 10 -16 22 -37 26 -45 4 -8 28 -51 54 -95 26 -44 56 -96
67 -116 42 -76 47 -84 52 -89 3 -3 11 -16 18 -30 25 -48 57 -105 95 -166 20
-34 37 -67 37 -73 0 -6 4 -11 9 -11 5 0 11 -8 15 -17 3 -10 10 -25 16 -33 9
-14 229 -395 288 -500 14 -25 36 -62 49 -82 12 -21 23 -39 23 -42 0 -2 18 -34
40 -70 22 -36 40 -70 40 -76 0 -5 4 -10 9 -10 5 0 11 -8 15 -17 6 -19 50 -100
78 -143 26 -40 67 -112 86 -150 9 -19 20 -37 23 -40 3 -3 12 -17 20 -32 8 -15
43 -77 79 -139 36 -61 73 -126 82 -143 88 -154 173 -296 179 -296 4 0 13 13
21 30 7 16 16 30 20 30 5 0 8 5 8 11 0 9 63 120 100 179 6 8 20 35 33 60 12
25 25 47 28 50 4 3 16 22 28 43 51 90 70 123 176 307 62 107 122 211 133 230
31 55 277 481 300 520 11 19 33 58 48 85 14 28 30 52 33 55 4 3 16 23 28 45
39 76 58 110 63 115 3 3 28 43 54 90 27 47 57 100 67 118 11 17 29 49 40 70
70 124 114 198 118 202 4 3 19 31 35 63 16 31 33 57 38 57 4 0 8 6 8 13 0 6
32 65 70 130 39 66 70 123 70 127 0 5 6 15 13 22 7 7 24 33 37 58 13 25 39 68
57 97 18 28 33 55 33 60 0 5 11 24 23 43 13 19 35 55 49 80 41 73 70 123 89
155 11 17 22 37 26 45 4 8 26 48 50 88 24 40 43 77 43 82 0 6 4 10 8 10 4 0
13 12 20 28 7 15 23 45 36 67 75 128 132 225 154 265 14 25 33 59 43 75 10 17
28 48 40 70 12 22 28 48 37 58 8 9 11 17 7 17 -4 0 -1 8 7 18 8 9 39 60 69
112 71 126 68 121 189 329 58 99 110 189 115 200 6 10 16 25 22 32 6 8 12 17
12 22 0 4 23 45 50 92 28 46 60 101 71 122 11 21 25 45 30 53 31 48 100 173
100 181 0 5 4 9 9 9 5 0 13 10 17 23 4 12 22 46 40 75 19 29 34 56 34 61 0 5
3 11 7 13 5 2 17 21 29 43 12 22 47 84 78 138 31 53 81 141 112 195 31 53 65
113 77 132 11 19 33 60 50 90 16 30 36 62 43 71 8 8 14 18 14 21 0 4 27 52 60
108 33 56 60 103 60 106 0 2 16 28 35 58 19 30 35 58 35 61 0 4 9 19 20 35 11
15 17 30 13 34 -3 3 -1 6 5 6 7 0 18 15 26 33 8 17 29 55 45 82 17 28 34 57
38 65 3 8 21 39 40 68 18 29 33 54 33 56 0 3 27 50 60 106 33 56 60 104 60
106 0 2 11 23 26 45 27 44 51 85 97 169 17 30 38 66 49 79 10 13 18 28 18 32
0 5 17 37 38 71 35 56 60 100 111 191 9 16 21 36 26 45 6 9 30 52 54 94 23 43
47 80 52 84 5 3 7 10 4 15 -4 5 -1 9 4 9 6 0 11 6 11 14 0 8 3 16 8 18 6 3 27
38 71 123 9 16 19 32 22 35 3 3 9 12 12 20 4 8 15 29 25 45 10 17 34 57 52 90
18 33 38 67 44 75 7 8 17 26 24 40 6 14 23 43 36 65 41 67 86 148 86 157 0 4
5 8 10 8 6 0 10 4 10 9 0 12 71 134 83 142 5 3 8 9 7 13 -1 4 20 44 46 89 27
45 47 85 46 90 -1 4 2 7 8 7 5 0 10 4 10 9 0 5 22 46 50 91 27 45 50 83 50 85
0 2 13 27 30 55 l30 50 -2017 -2 -2016 -3 -48 -80 c-27 -44 -48 -84 -49 -88 0
-4 -5 -13 -11 -20 -16 -19 -239 -408 -239 -418 0 -5 -4 -9 -10 -9 -5 0 -10 -4
-10 -10 0 -5 -35 -69 -78 -142 -43 -74 -81 -140 -85 -148 -4 -8 -17 -32 -30
-52 -12 -21 -35 -61 -51 -90 -15 -29 -34 -60 -42 -69 -8 -8 -14 -18 -14 -21 0
-4 -20 -41 -45 -82 -25 -42 -45 -79 -45 -81 0 -3 -15 -28 -33 -57 -19 -29 -37
-60 -40 -68 -4 -8 -18 -33 -31 -55 -12 -22 -40 -69 -61 -105 -21 -36 -45 -78
-54 -93 -9 -16 -20 -36 -26 -45 -5 -9 -52 -90 -103 -179 -51 -90 -97 -165
-101 -168 -5 -2 -19 17 -32 43 -13 26 -26 49 -30 52 -3 3 -12 20 -20 38 -8 17
-17 32 -21 32 -5 0 -8 4 -8 10 0 5 -18 39 -40 75 -22 36 -40 68 -40 71 0 3 -8
18 -19 32 -10 15 -31 51 -47 80 -16 29 -38 68 -49 86 -11 19 -34 58 -51 87
-17 30 -41 72 -53 94 -13 22 -45 77 -72 123 -27 45 -49 84 -49 86 0 2 -25 45
-55 95 -30 51 -55 96 -55 101 0 5 -6 15 -12 22 -7 7 -20 27 -28 43 -8 17 -17
32 -20 35 -5 5 -13 19 -58 99 -14 25 -36 63 -49 83 -12 21 -23 42 -23 47 0 5
-3 11 -7 13 -5 2 -16 19 -26 38 -30 57 -53 98 -79 138 -13 20 -30 51 -38 67
-8 17 -25 44 -37 61 -13 17 -23 34 -23 37 0 3 -31 60 -70 126 -39 66 -70 122
-70 125 0 3 -8 15 -17 26 -17 20 -26 20 -2031 20 l-2014 0 20 -32z"/>
</g>
</svg>
