<svg xmlns="http://www.w3.org/2000/svg" width="229" height="32"><path d="M87.96 6.767l-2.462 4.265-2.46-4.265h-8.2l10.66 18.466L96.16 6.767H87.96z" fill-rule="evenodd" fill="#41b883"/><path d="M87.96 6.767l-2.462 4.265-2.46-4.265h-3.936l6.397 11.08 6.397-11.08H87.96z" fill-rule="evenodd" fill="#34495e"/><path d="M143.677 10.507l-6.462-3.747c-.581-.323-1.486-.323-2.067 0l-6.461 3.747c-.517.387-.969 1.163-.969 1.81v7.43c0 .646.452 1.422 1.034 1.745l6.461 3.747c.581.323 1.486.323 2.067 0l6.462-3.747c.581-.323 1.033-1.1 1.033-1.745v-7.43c-.064-.646-.516-1.422-1.098-1.81m-1.744 4.071h-.647v-1.163c0-.84-.646-1.163-1.937-1.163h-.065c-3.102 0-2.844-1.163-2.908-1.616h-.064c-.065.453.193 1.616-2.908 1.616h-.064c-1.293 0-1.939.259-1.939 1.163v.905l10.532 3.037v1.291c0 1.229-.582 1.94-2.649 1.94h-.13c-1.55 0-2.584.322-2.584 1.615h-.646c0-1.229-.97-1.616-2.584-1.616-2.004 0-2.65-.71-2.65-1.939V17.55h.646v1.163c0 .84.646 1.163 1.939 1.163h.065c3.1 0 2.842 1.163 2.907 1.616h.065c.064-.453-.195-1.616 2.907-1.616h.13c1.291 0 1.937-.258 1.937-1.163v-.646l-10.596-3.1V13.48c0-1.228.581-1.939 2.649-1.939h.129c1.616 0 2.585-.323 2.585-1.615h.646c0 1.228.969 1.615 2.585 1.615h.064c2.003 0 2.65.711 2.65 1.94l-.065 1.097z" fill="#f6e767"/><g><path d="M151.677 13.594c0-1.07 1.146-1.527 2.064-1.527.916 0 1.909.305 1.986 1.375h.84c-.23-1.757-1.757-2.14-2.903-2.14-1.452 0-2.827.84-2.827 2.445 0 1.91 2.216 2.368 3.668 2.904.763.229 1.375.687 1.375 1.527 0 1.146-1.146 1.758-2.139 1.758-1.223 0-2.216-.382-2.216-1.758h-.841c0 1.452 1.223 2.52 2.674 2.52 1.834 0 3.515-.61 3.515-2.52-.153-3.21-5.196-2.062-5.196-4.584m15.74 5.73l-4.966-7.87h-.918v8.94h.841v-7.717l4.813 7.717h.994v-8.94h-.841l.077 7.87m6.265 1.147h.84v-9.016h-.84v9.016m8.633-9.016h-2.216v8.939h.841v-3.896h1.452c1.757 0 3.668-.383 3.668-2.522-.077-2.14-2.063-2.521-3.745-2.521m.536 4.355h-1.987v-3.591h1.987c1.221 0 2.291.382 2.291 1.757-.075 1.452-1.145 1.835-2.291 1.835m10.391 4.048c-2.293 0-2.981-2.062-2.981-3.897 0-1.833.688-3.896 2.981-3.896.993 0 1.986.458 2.139 1.528h.841c-.154-1.604-1.529-2.291-2.98-2.291-2.675 0-3.897 2.216-3.897 4.66 0 2.52 1.146 4.66 3.897 4.66 1.451 0 2.826-.84 3.055-2.368h-.84c-.229 1.146-1.222 1.605-2.215 1.605m9.092-8.405l-3.591 8.939h.84l.917-2.445h4.432l.993 2.445h.916l-3.591-8.94h-.916m-1.528 5.808l1.987-5.043 1.909 5.043h-3.896m13.294-1.53c1.07-.304 1.757-.992 1.757-1.985 0-.84-.305-1.528-.916-1.91-.688-.46-1.3-.46-2.139-.46h-2.904v8.94h.84v-4.28h2.216c1.605 0 1.757.384 1.91 2.447.077.61.077 1.299.306 1.834h.917c-.382-.535-.306-1.223-.459-2.674-.153-.918-.382-1.682-1.528-1.91m-1.757-.306h-1.757v-3.21h1.833c.84 0 2.445-.152 2.445 1.605.077 1.528-1.375 1.605-2.521 1.605m6.418-3.973v.764h2.903v8.252h.764v-8.252h2.827v-.764h-6.494z" fill="#708090" fill-opacity=".749"/></g><g><path d="M2.67 20.173v-8.346h1.484l2.602 6.433 2.59-6.433h1.491v8.346H9.8v-7.02l-2.829 7.02h-.422l-2.84-7.02v7.02H2.67m9.249 0l3.365-8.346h1.29l3.353 8.346h-1.184l-.74-1.863H13.85l-.74 1.863h-1.191m2.241-2.78h3.544l-1.778-4.503-1.766 4.503m6.854 2.78v-8.346h2.852c.847 0 1.599.184 2.254.553a3.79 3.79 0 0 1 1.503 1.5c.352.653.53 1.385.52 2.126 0 .591-.102 1.143-.305 1.652a3.918 3.918 0 0 1-.856 1.324c-.385.383-.847.68-1.354.873a4.76 4.76 0 0 1-1.762.318h-2.851m1.038-.93h1.814c.656 0 1.23-.146 1.723-.439.475-.274.86-.68 1.109-1.167.247-.485.37-1.029.37-1.63 0-.612-.122-1.16-.364-1.644a2.805 2.805 0 0 0-1.099-1.167c-.492-.293-1.07-.44-1.739-.44h-1.814v6.488m7.71.929v-8.346h5.467v.93h-4.428v2.687h4.338v.922H30.8v2.878h4.429v.929H29.76m9.529-8.346h1.148l1.85 6.958 1.92-6.958h.861l1.913 6.958 1.838-6.958h1.167l-2.388 8.346h-1.13l-1.84-6.732-1.837 6.732h-1.125l-2.377-8.346m11.847 8.346v-8.346h1.038v8.346h-1.04m2.407-7.417v-.929h6.33v.93H57.22v7.416h-1.038v-7.417h-2.64m7.694 7.417v-8.346h1.038v3.593h4.876v-3.593h1.038v8.346H67.15v-3.83h-4.876v3.83h-1.038z" fill="#708090" fill-opacity=".749"/></g><g><path d="M103.467 20.247v-8.494h3.782c.729 0 1.309.199 1.738.596.429.397.644.92.644 1.567 0 .51-.146.939-.436 1.288a1.87 1.87 0 0 1-1.057.658c.452.072.842.31 1.17.72.326.408.49.865.49 1.371 0 .692-.218 1.248-.655 1.667-.437.418-1.04.628-1.807.628h-3.869m1.057-.945h2.613c.489 0 .872-.131 1.148-.392.275-.26.413-.619.413-1.07 0-.414-.138-.763-.411-1.045-.273-.282-.657-.422-1.15-.422h-2.613v2.93m0-3.87h2.544c.464 0 .825-.127 1.082-.379.258-.253.385-.581.385-.984 0-.397-.127-.726-.385-.984-.257-.261-.618-.389-1.082-.389h-2.544v2.736m5.689-3.682h1.238l2.637 3.949 2.637-3.95h1.238l-3.34 4.902v3.595h-1.057v-3.595l-3.353-4.901z" fill="#708090" fill-opacity=".749"/></g></svg>